<svg width="172" height="37" viewBox="0 0 172 37" fill="none" xmlns="http://www.w3.org/2000/svg">
<rect width="61" height="19" rx="9.5" fill="#CA0100"/>
<path d="M12.25 3.60156V15H10V6.19531L7.29688 7.05469V5.28125L12.0078 3.60156H12.25ZM23.6094 8.3125V10.2812C23.6094 11.1354 23.5182 11.8724 23.3359 12.4922C23.1536 13.1068 22.8906 13.612 22.5469 14.0078C22.2083 14.3984 21.8047 14.6875 21.3359 14.875C20.8672 15.0625 20.3464 15.1562 19.7734 15.1562C19.3151 15.1562 18.888 15.099 18.4922 14.9844C18.0964 14.8646 17.7396 14.6797 17.4219 14.4297C17.1094 14.1797 16.8385 13.8646 16.6094 13.4844C16.3854 13.099 16.2135 12.6406 16.0938 12.1094C15.974 11.5781 15.9141 10.9688 15.9141 10.2812V8.3125C15.9141 7.45833 16.0052 6.72656 16.1875 6.11719C16.375 5.5026 16.638 5 16.9766 4.60938C17.3203 4.21875 17.7266 3.93229 18.1953 3.75C18.6641 3.5625 19.1849 3.46875 19.7578 3.46875C20.2161 3.46875 20.6406 3.52865 21.0312 3.64844C21.4271 3.76302 21.7839 3.94271 22.1016 4.1875C22.4193 4.43229 22.6901 4.7474 22.9141 5.13281C23.138 5.51302 23.3099 5.96875 23.4297 6.5C23.5495 7.02604 23.6094 7.63021 23.6094 8.3125ZM21.3516 10.5781V8.00781C21.3516 7.59635 21.3281 7.23698 21.2812 6.92969C21.2396 6.6224 21.1745 6.36198 21.0859 6.14844C20.9974 5.92969 20.888 5.7526 20.7578 5.61719C20.6276 5.48177 20.4792 5.38281 20.3125 5.32031C20.1458 5.25781 19.9609 5.22656 19.7578 5.22656C19.5026 5.22656 19.276 5.27604 19.0781 5.375C18.8854 5.47396 18.7214 5.63281 18.5859 5.85156C18.4505 6.0651 18.3464 6.35156 18.2734 6.71094C18.2057 7.0651 18.1719 7.4974 18.1719 8.00781V10.5781C18.1719 10.9896 18.1927 11.3516 18.2344 11.6641C18.2812 11.9766 18.349 12.2448 18.4375 12.4688C18.5312 12.6875 18.6406 12.8672 18.7656 13.0078C18.8958 13.1432 19.0443 13.2422 19.2109 13.3047C19.3828 13.3672 19.5703 13.3984 19.7734 13.3984C20.0234 13.3984 20.2448 13.349 20.4375 13.25C20.6354 13.1458 20.8021 12.9844 20.9375 12.7656C21.0781 12.5417 21.1823 12.25 21.25 11.8906C21.3177 11.5312 21.3516 11.0938 21.3516 10.5781ZM34.9062 6.54688V8.3125H30.75V6.54688H34.9062ZM36.5547 6.54688V15H34.3047V6.54688H36.5547ZM30.1875 6.54688H32.3984L32.1719 10.8125C32.1406 11.4219 32.0755 11.9583 31.9766 12.4219C31.8776 12.8854 31.7448 13.2812 31.5781 13.6094C31.4167 13.9375 31.2214 14.2057 30.9922 14.4141C30.7682 14.6172 30.5052 14.7656 30.2031 14.8594C29.9062 14.9531 29.5781 15 29.2188 15H28.5312L28.5078 13.2266L28.7969 13.1953C28.9635 13.1797 29.1094 13.1328 29.2344 13.0547C29.3646 12.9714 29.474 12.8542 29.5625 12.7031C29.6562 12.5469 29.7344 12.3516 29.7969 12.1172C29.8594 11.8776 29.9089 11.5964 29.9453 11.2734C29.987 10.9505 30.0156 10.5781 30.0312 10.1562L30.1875 6.54688ZM42.1875 15.1562C41.5312 15.1562 40.9427 15.0521 40.4219 14.8438C39.901 14.6302 39.4583 14.3359 39.0938 13.9609C38.7344 13.5859 38.4583 13.151 38.2656 12.6562C38.0729 12.1562 37.9766 11.625 37.9766 11.0625V10.75C37.9766 10.1094 38.0677 9.52344 38.25 8.99219C38.4323 8.46094 38.6927 8 39.0312 7.60938C39.375 7.21875 39.7917 6.91927 40.2812 6.71094C40.7708 6.4974 41.3229 6.39062 41.9375 6.39062C42.5365 6.39062 43.0677 6.48958 43.5312 6.6875C43.9948 6.88542 44.3828 7.16667 44.6953 7.53125C45.013 7.89583 45.2526 8.33333 45.4141 8.84375C45.5755 9.34896 45.6562 9.91146 45.6562 10.5312V11.4688H38.9375V9.96875H43.4453V9.79688C43.4453 9.48438 43.388 9.20573 43.2734 8.96094C43.1641 8.71094 42.9974 8.51302 42.7734 8.36719C42.5495 8.22135 42.263 8.14844 41.9141 8.14844C41.6172 8.14844 41.362 8.21354 41.1484 8.34375C40.9349 8.47396 40.7604 8.65625 40.625 8.89062C40.4948 9.125 40.3958 9.40104 40.3281 9.71875C40.2656 10.0312 40.2344 10.375 40.2344 10.75V11.0625C40.2344 11.401 40.2812 11.7135 40.375 12C40.474 12.2865 40.612 12.5339 40.7891 12.7422C40.9714 12.9505 41.1901 13.112 41.4453 13.2266C41.7057 13.3411 42 13.3984 42.3281 13.3984C42.7344 13.3984 43.112 13.3203 43.4609 13.1641C43.8151 13.0026 44.1198 12.7604 44.375 12.4375L45.4688 13.625C45.2917 13.8802 45.0495 14.125 44.7422 14.3594C44.4401 14.5938 44.0755 14.7865 43.6484 14.9375C43.2214 15.0833 42.7344 15.1562 42.1875 15.1562ZM51.1641 6.54688V15H48.9062V6.54688H51.1641ZM53.8828 6.54688V8.28906H46.2266V6.54688H53.8828Z" fill="white"/>
<path d="M72.6719 6.54688V8.3125H68.5781V6.54688H72.6719ZM69.2266 6.54688V15H66.9766V6.54688H69.2266ZM74.3125 6.54688V15H72.0547V6.54688H74.3125ZM78.2969 8.17188V18.25H76.0469V6.54688H78.1328L78.2969 8.17188ZM83.6484 10.6797V10.8438C83.6484 11.4583 83.5755 12.0286 83.4297 12.5547C83.2891 13.0807 83.0807 13.5391 82.8047 13.9297C82.5286 14.3151 82.1849 14.6172 81.7734 14.8359C81.3672 15.0495 80.8984 15.1562 80.3672 15.1562C79.8516 15.1562 79.4036 15.0521 79.0234 14.8438C78.6432 14.6354 78.3229 14.3438 78.0625 13.9688C77.8073 13.5885 77.6016 13.1484 77.4453 12.6484C77.2891 12.1484 77.1693 11.612 77.0859 11.0391V10.6094C77.1693 9.99479 77.2891 9.43229 77.4453 8.92188C77.6016 8.40625 77.8073 7.96094 78.0625 7.58594C78.3229 7.20573 78.6406 6.91146 79.0156 6.70312C79.3958 6.49479 79.8411 6.39062 80.3516 6.39062C80.888 6.39062 81.3594 6.49219 81.7656 6.69531C82.1771 6.89844 82.5208 7.1901 82.7969 7.57031C83.0781 7.95052 83.2891 8.40365 83.4297 8.92969C83.5755 9.45573 83.6484 10.0391 83.6484 10.6797ZM81.3906 10.8438V10.6797C81.3906 10.3203 81.3594 9.98958 81.2969 9.6875C81.2396 9.38021 81.1458 9.11198 81.0156 8.88281C80.8906 8.65365 80.724 8.47656 80.5156 8.35156C80.3125 8.22135 80.0651 8.15625 79.7734 8.15625C79.4661 8.15625 79.2031 8.20573 78.9844 8.30469C78.7708 8.40365 78.5964 8.54688 78.4609 8.73438C78.3255 8.92188 78.224 9.14583 78.1562 9.40625C78.0885 9.66667 78.0469 9.96094 78.0312 10.2891V11.375C78.0573 11.7604 78.1302 12.1068 78.25 12.4141C78.3698 12.7161 78.5547 12.9557 78.8047 13.1328C79.0547 13.3099 79.3828 13.3984 79.7891 13.3984C80.0859 13.3984 80.3359 13.3333 80.5391 13.2031C80.7422 13.0677 80.9062 12.8828 81.0312 12.6484C81.1615 12.4141 81.2526 12.1432 81.3047 11.8359C81.362 11.5286 81.3906 11.1979 81.3906 10.8438ZM88.9375 15.1562C88.2812 15.1562 87.6927 15.0521 87.1719 14.8438C86.651 14.6302 86.2083 14.3359 85.8438 13.9609C85.4844 13.5859 85.2083 13.151 85.0156 12.6562C84.8229 12.1562 84.7266 11.625 84.7266 11.0625V10.75C84.7266 10.1094 84.8177 9.52344 85 8.99219C85.1823 8.46094 85.4427 8 85.7812 7.60938C86.125 7.21875 86.5417 6.91927 87.0312 6.71094C87.5208 6.4974 88.0729 6.39062 88.6875 6.39062C89.2865 6.39062 89.8177 6.48958 90.2812 6.6875C90.7448 6.88542 91.1328 7.16667 91.4453 7.53125C91.763 7.89583 92.0026 8.33333 92.1641 8.84375C92.3255 9.34896 92.4062 9.91146 92.4062 10.5312V11.4688H85.6875V9.96875H90.1953V9.79688C90.1953 9.48438 90.138 9.20573 90.0234 8.96094C89.9141 8.71094 89.7474 8.51302 89.5234 8.36719C89.2995 8.22135 89.013 8.14844 88.6641 8.14844C88.3672 8.14844 88.112 8.21354 87.8984 8.34375C87.6849 8.47396 87.5104 8.65625 87.375 8.89062C87.2448 9.125 87.1458 9.40104 87.0781 9.71875C87.0156 10.0312 86.9844 10.375 86.9844 10.75V11.0625C86.9844 11.401 87.0312 11.7135 87.125 12C87.224 12.2865 87.362 12.5339 87.5391 12.7422C87.7214 12.9505 87.9401 13.112 88.1953 13.2266C88.4557 13.3411 88.75 13.3984 89.0781 13.3984C89.4844 13.3984 89.862 13.3203 90.2109 13.1641C90.5651 13.0026 90.8698 12.7604 91.125 12.4375L92.2188 13.625C92.0417 13.8802 91.7995 14.125 91.4922 14.3594C91.1901 14.5938 90.8255 14.7865 90.3984 14.9375C89.9714 15.0833 89.4844 15.1562 88.9375 15.1562ZM97.8984 11.4688H95.25L95.2344 9.99219H97.4219C97.7135 9.99219 97.9505 9.96354 98.1328 9.90625C98.3151 9.84375 98.4479 9.7526 98.5312 9.63281C98.6198 9.50781 98.6641 9.35677 98.6641 9.17969C98.6641 9.02344 98.6354 8.89062 98.5781 8.78125C98.526 8.66667 98.4453 8.57292 98.3359 8.5C98.2266 8.42708 98.0885 8.375 97.9219 8.34375C97.7604 8.30729 97.5703 8.28906 97.3516 8.28906H96.0859V15H93.8359V6.54688H97.3516C97.9036 6.54688 98.3984 6.59635 98.8359 6.69531C99.2734 6.78906 99.6458 6.93229 99.9531 7.125C100.266 7.31771 100.503 7.5625 100.664 7.85938C100.831 8.15104 100.914 8.4974 100.914 8.89844C100.914 9.15885 100.854 9.40365 100.734 9.63281C100.62 9.86198 100.448 10.0651 100.219 10.2422C99.9896 10.4193 99.7057 10.5651 99.3672 10.6797C99.0339 10.7891 98.6484 10.8568 98.2109 10.8828L97.8984 11.4688ZM97.8984 15H94.6953L95.4688 13.2578H97.8984C98.1745 13.2578 98.401 13.224 98.5781 13.1562C98.7552 13.0885 98.8854 12.9896 98.9688 12.8594C99.0573 12.724 99.1016 12.5625 99.1016 12.375C99.1016 12.1927 99.0625 12.0339 98.9844 11.8984C98.9062 11.763 98.7786 11.6589 98.6016 11.5859C98.4297 11.5078 98.1953 11.4688 97.8984 11.4688H95.7969L95.8125 9.99219H98.2031L98.75 10.5859C99.3438 10.6224 99.8333 10.7344 100.219 10.9219C100.604 11.1094 100.888 11.349 101.07 11.6406C101.258 11.9271 101.352 12.2422 101.352 12.5859C101.352 12.987 101.276 13.3385 101.125 13.6406C100.974 13.9427 100.75 14.1953 100.453 14.3984C100.161 14.5964 99.8021 14.7474 99.375 14.8516C98.9479 14.9505 98.4557 15 97.8984 15ZM102.375 10.8594V10.6953C102.375 10.0755 102.464 9.50521 102.641 8.98438C102.818 8.45833 103.076 8.0026 103.414 7.61719C103.753 7.23177 104.169 6.93229 104.664 6.71875C105.159 6.5 105.727 6.39062 106.367 6.39062C107.008 6.39062 107.578 6.5 108.078 6.71875C108.578 6.93229 108.997 7.23177 109.336 7.61719C109.68 8.0026 109.94 8.45833 110.117 8.98438C110.294 9.50521 110.383 10.0755 110.383 10.6953V10.8594C110.383 11.474 110.294 12.0443 110.117 12.5703C109.94 13.0911 109.68 13.5469 109.336 13.9375C108.997 14.3229 108.581 14.6224 108.086 14.8359C107.591 15.0495 107.023 15.1562 106.383 15.1562C105.742 15.1562 105.172 15.0495 104.672 14.8359C104.177 14.6224 103.758 14.3229 103.414 13.9375C103.076 13.5469 102.818 13.0911 102.641 12.5703C102.464 12.0443 102.375 11.474 102.375 10.8594ZM104.625 10.6953V10.8594C104.625 11.2135 104.656 11.5443 104.719 11.8516C104.781 12.1589 104.88 12.4297 105.016 12.6641C105.156 12.8932 105.339 13.0729 105.562 13.2031C105.786 13.3333 106.06 13.3984 106.383 13.3984C106.695 13.3984 106.964 13.3333 107.188 13.2031C107.411 13.0729 107.591 12.8932 107.727 12.6641C107.862 12.4297 107.961 12.1589 108.023 11.8516C108.091 11.5443 108.125 11.2135 108.125 10.8594V10.6953C108.125 10.3516 108.091 10.0286 108.023 9.72656C107.961 9.41927 107.859 9.14844 107.719 8.91406C107.583 8.67448 107.404 8.48698 107.18 8.35156C106.956 8.21615 106.685 8.14844 106.367 8.14844C106.049 8.14844 105.779 8.21615 105.555 8.35156C105.336 8.48698 105.156 8.67448 105.016 8.91406C104.88 9.14844 104.781 9.41927 104.719 9.72656C104.656 10.0286 104.625 10.3516 104.625 10.6953ZM115.258 13.3984C115.534 13.3984 115.779 13.3464 115.992 13.2422C116.206 13.1328 116.372 12.9818 116.492 12.7891C116.617 12.5911 116.682 12.3594 116.688 12.0938H118.805C118.799 12.6875 118.641 13.2161 118.328 13.6797C118.016 14.138 117.596 14.5 117.07 14.7656C116.544 15.026 115.956 15.1562 115.305 15.1562C114.648 15.1562 114.076 15.0469 113.586 14.8281C113.102 14.6094 112.698 14.3073 112.375 13.9219C112.052 13.5312 111.81 13.0781 111.648 12.5625C111.487 12.0417 111.406 11.4844 111.406 10.8906V10.6641C111.406 10.0651 111.487 9.50781 111.648 8.99219C111.81 8.47135 112.052 8.01823 112.375 7.63281C112.698 7.24219 113.102 6.9375 113.586 6.71875C114.07 6.5 114.638 6.39062 115.289 6.39062C115.982 6.39062 116.589 6.52344 117.109 6.78906C117.635 7.05469 118.047 7.4349 118.344 7.92969C118.646 8.41927 118.799 9 118.805 9.67188H116.688C116.682 9.39062 116.622 9.13542 116.508 8.90625C116.398 8.67708 116.237 8.49479 116.023 8.35938C115.815 8.21875 115.557 8.14844 115.25 8.14844C114.922 8.14844 114.654 8.21875 114.445 8.35938C114.237 8.49479 114.076 8.68229 113.961 8.92188C113.846 9.15625 113.766 9.42448 113.719 9.72656C113.677 10.0234 113.656 10.3359 113.656 10.6641V10.8906C113.656 11.2188 113.677 11.5339 113.719 11.8359C113.76 12.138 113.839 12.4062 113.953 12.6406C114.073 12.875 114.237 13.0599 114.445 13.1953C114.654 13.3307 114.924 13.3984 115.258 13.3984ZM121.922 6.54688L123.32 9.11719L124.758 6.54688H127.156L124.766 10.6797L127.266 15H124.859L123.336 12.2812L121.812 15H119.406L121.906 10.6797L119.516 6.54688H121.922ZM127.625 10.8594V10.6953C127.625 10.0755 127.714 9.50521 127.891 8.98438C128.068 8.45833 128.326 8.0026 128.664 7.61719C129.003 7.23177 129.419 6.93229 129.914 6.71875C130.409 6.5 130.977 6.39062 131.617 6.39062C132.258 6.39062 132.828 6.5 133.328 6.71875C133.828 6.93229 134.247 7.23177 134.586 7.61719C134.93 8.0026 135.19 8.45833 135.367 8.98438C135.544 9.50521 135.633 10.0755 135.633 10.6953V10.8594C135.633 11.474 135.544 12.0443 135.367 12.5703C135.19 13.0911 134.93 13.5469 134.586 13.9375C134.247 14.3229 133.831 14.6224 133.336 14.8359C132.841 15.0495 132.273 15.1562 131.633 15.1562C130.992 15.1562 130.422 15.0495 129.922 14.8359C129.427 14.6224 129.008 14.3229 128.664 13.9375C128.326 13.5469 128.068 13.0911 127.891 12.5703C127.714 12.0443 127.625 11.474 127.625 10.8594ZM129.875 10.6953V10.8594C129.875 11.2135 129.906 11.5443 129.969 11.8516C130.031 12.1589 130.13 12.4297 130.266 12.6641C130.406 12.8932 130.589 13.0729 130.812 13.2031C131.036 13.3333 131.31 13.3984 131.633 13.3984C131.945 13.3984 132.214 13.3333 132.438 13.2031C132.661 13.0729 132.841 12.8932 132.977 12.6641C133.112 12.4297 133.211 12.1589 133.273 11.8516C133.341 11.5443 133.375 11.2135 133.375 10.8594V10.6953C133.375 10.3516 133.341 10.0286 133.273 9.72656C133.211 9.41927 133.109 9.14844 132.969 8.91406C132.833 8.67448 132.654 8.48698 132.43 8.35156C132.206 8.21615 131.935 8.14844 131.617 8.14844C131.299 8.14844 131.029 8.21615 130.805 8.35156C130.586 8.48698 130.406 8.67448 130.266 8.91406C130.13 9.14844 130.031 9.41927 129.969 9.72656C129.906 10.0286 129.875 10.3516 129.875 10.6953ZM137.977 6.54688H140.227L140.156 9.375C140.135 10.2812 140.031 11.0599 139.844 11.7109C139.656 12.362 139.406 12.9089 139.094 13.3516C138.781 13.7943 138.424 14.1484 138.023 14.4141C137.628 14.6745 137.211 14.8698 136.773 15H136.352L136.328 13.2656L136.562 13.2422C136.828 12.9661 137.047 12.6979 137.219 12.4375C137.391 12.1719 137.523 11.8932 137.617 11.6016C137.711 11.3099 137.779 10.9844 137.82 10.625C137.867 10.2656 137.896 9.84896 137.906 9.375L137.977 6.54688ZM138.586 6.54688H144.188V15H141.945V8.35156H138.586V6.54688ZM135.836 13.2422H145.398V17.5391H143.148V15H138.141V17.5391H135.836V13.2422ZM148.695 11.8594L151.531 6.54688H153.781V15H151.531V9.67969L148.695 15H146.445V6.54688H148.695V11.8594ZM160.656 12.4141L162.875 6.54688H164.711L161.414 15H159.898L156.617 6.54688H158.453L160.656 12.4141ZM157.914 6.54688V15H155.664V6.54688H157.914ZM163.453 15V6.54688H165.703V15H163.453ZM7.08594 30.4688H4.4375L4.42188 28.9922H6.60938C6.90104 28.9922 7.13802 28.9635 7.32031 28.9062C7.5026 28.8438 7.63542 28.7526 7.71875 28.6328C7.80729 28.5078 7.85156 28.3568 7.85156 28.1797C7.85156 28.0234 7.82292 27.8906 7.76562 27.7812C7.71354 27.6667 7.63281 27.5729 7.52344 27.5C7.41406 27.4271 7.27604 27.375 7.10938 27.3438C6.94792 27.3073 6.75781 27.2891 6.53906 27.2891H5.27344V34H3.02344V25.5469H6.53906C7.09115 25.5469 7.58594 25.5964 8.02344 25.6953C8.46094 25.7891 8.83333 25.9323 9.14062 26.125C9.45312 26.3177 9.6901 26.5625 9.85156 26.8594C10.0182 27.151 10.1016 27.4974 10.1016 27.8984C10.1016 28.1589 10.0417 28.4036 9.92188 28.6328C9.80729 28.862 9.63542 29.0651 9.40625 29.2422C9.17708 29.4193 8.89323 29.5651 8.55469 29.6797C8.22135 29.7891 7.83594 29.8568 7.39844 29.8828L7.08594 30.4688ZM7.08594 34H3.88281L4.65625 32.2578H7.08594C7.36198 32.2578 7.58854 32.224 7.76562 32.1562C7.94271 32.0885 8.07292 31.9896 8.15625 31.8594C8.24479 31.724 8.28906 31.5625 8.28906 31.375C8.28906 31.1927 8.25 31.0339 8.17188 30.8984C8.09375 30.763 7.96615 30.6589 7.78906 30.5859C7.61719 30.5078 7.38281 30.4688 7.08594 30.4688H4.98438L5 28.9922H7.39062L7.9375 29.5859C8.53125 29.6224 9.02083 29.7344 9.40625 29.9219C9.79167 30.1094 10.0755 30.349 10.2578 30.6406C10.4453 30.9271 10.5391 31.2422 10.5391 31.5859C10.5391 31.987 10.4635 32.3385 10.3125 32.6406C10.1615 32.9427 9.9375 33.1953 9.64062 33.3984C9.34896 33.5964 8.98958 33.7474 8.5625 33.8516C8.13542 33.9505 7.64323 34 7.08594 34ZM16.4844 32.0938V28.3281C16.4844 28.0573 16.4401 27.8255 16.3516 27.6328C16.263 27.4349 16.125 27.2812 15.9375 27.1719C15.7552 27.0625 15.5182 27.0078 15.2266 27.0078C14.9766 27.0078 14.7604 27.0521 14.5781 27.1406C14.3958 27.224 14.2552 27.3464 14.1562 27.5078C14.0573 27.6641 14.0078 27.849 14.0078 28.0625H11.7578C11.7578 27.7031 11.8411 27.362 12.0078 27.0391C12.1745 26.7161 12.4167 26.4323 12.7344 26.1875C13.0521 25.9375 13.4297 25.7422 13.8672 25.6016C14.3099 25.4609 14.8047 25.3906 15.3516 25.3906C16.0078 25.3906 16.5911 25.5 17.1016 25.7188C17.612 25.9375 18.013 26.2656 18.3047 26.7031C18.6016 27.1406 18.75 27.6875 18.75 28.3438V31.9609C18.75 32.4245 18.7786 32.8047 18.8359 33.1016C18.8932 33.3932 18.9766 33.6484 19.0859 33.8672V34H16.8125C16.7031 33.7708 16.6198 33.4844 16.5625 33.1406C16.5104 32.7917 16.4844 32.4427 16.4844 32.0938ZM16.7812 28.8516L16.7969 30.125H15.5391C15.2422 30.125 14.9844 30.1589 14.7656 30.2266C14.5469 30.2943 14.3672 30.3906 14.2266 30.5156C14.0859 30.6354 13.9818 30.776 13.9141 30.9375C13.8516 31.099 13.8203 31.276 13.8203 31.4688C13.8203 31.6615 13.8646 31.8359 13.9531 31.9922C14.0417 32.1432 14.1693 32.263 14.3359 32.3516C14.5026 32.4349 14.6979 32.4766 14.9219 32.4766C15.2604 32.4766 15.5547 32.4089 15.8047 32.2734C16.0547 32.138 16.2474 31.9714 16.3828 31.7734C16.5234 31.5755 16.5964 31.388 16.6016 31.2109L17.1953 32.1641C17.112 32.3776 16.9974 32.599 16.8516 32.8281C16.7109 33.0573 16.5312 33.2734 16.3125 33.4766C16.0938 33.6745 15.8307 33.8385 15.5234 33.9688C15.2161 34.0938 14.8516 34.1562 14.4297 34.1562C13.8932 34.1562 13.4062 34.0495 12.9688 33.8359C12.5365 33.6172 12.1927 33.3177 11.9375 32.9375C11.6875 32.5521 11.5625 32.1146 11.5625 31.625C11.5625 31.1823 11.6458 30.7891 11.8125 30.4453C11.9792 30.1016 12.224 29.8125 12.5469 29.5781C12.875 29.3385 13.2839 29.1589 13.7734 29.0391C14.263 28.9141 14.8307 28.8516 15.4766 28.8516H16.7812ZM20.4766 25.5469H22.7266V32.2422H25.0625V25.5469H27.3281V32.2422H29.6562V25.5469H31.9062V34H20.4766V25.5469ZM35.9609 30.8594L38.7969 25.5469H41.0469V34H38.7969V28.6797L35.9609 34H33.7109V25.5469H35.9609V30.8594ZM46.4062 29.8594V29.6953C46.4062 29.0755 46.4948 28.5052 46.6719 27.9844C46.849 27.4583 47.1068 27.0026 47.4453 26.6172C47.7839 26.2318 48.2005 25.9323 48.6953 25.7188C49.1901 25.5 49.7578 25.3906 50.3984 25.3906C51.0391 25.3906 51.6094 25.5 52.1094 25.7188C52.6094 25.9323 53.0286 26.2318 53.3672 26.6172C53.7109 27.0026 53.9714 27.4583 54.1484 27.9844C54.3255 28.5052 54.4141 29.0755 54.4141 29.6953V29.8594C54.4141 30.474 54.3255 31.0443 54.1484 31.5703C53.9714 32.0911 53.7109 32.5469 53.3672 32.9375C53.0286 33.3229 52.612 33.6224 52.1172 33.8359C51.6224 34.0495 51.0547 34.1562 50.4141 34.1562C49.7734 34.1562 49.2031 34.0495 48.7031 33.8359C48.2083 33.6224 47.7891 33.3229 47.4453 32.9375C47.1068 32.5469 46.849 32.0911 46.6719 31.5703C46.4948 31.0443 46.4062 30.474 46.4062 29.8594ZM48.6562 29.6953V29.8594C48.6562 30.2135 48.6875 30.5443 48.75 30.8516C48.8125 31.1589 48.9115 31.4297 49.0469 31.6641C49.1875 31.8932 49.3698 32.0729 49.5938 32.2031C49.8177 32.3333 50.0911 32.3984 50.4141 32.3984C50.7266 32.3984 50.9948 32.3333 51.2188 32.2031C51.4427 32.0729 51.6224 31.8932 51.7578 31.6641C51.8932 31.4297 51.9922 31.1589 52.0547 30.8516C52.1224 30.5443 52.1562 30.2135 52.1562 29.8594V29.6953C52.1562 29.3516 52.1224 29.0286 52.0547 28.7266C51.9922 28.4193 51.8906 28.1484 51.75 27.9141C51.6146 27.6745 51.4349 27.487 51.2109 27.3516C50.987 27.2161 50.7161 27.1484 50.3984 27.1484C50.0807 27.1484 49.8099 27.2161 49.5859 27.3516C49.3672 27.487 49.1875 27.6745 49.0469 27.9141C48.9115 28.1484 48.8125 28.4193 48.75 28.7266C48.6875 29.0286 48.6562 29.3516 48.6562 29.6953ZM58.625 30.8125L55.1094 25.5469H57.8984L59.6953 28.7344H61.3125L61.0391 30.8125H58.625ZM59.7266 30.4297L57.7969 34H55.0859L57.8906 29.3438L59.7266 30.4297ZM62.7734 25.5469V34H60.5234V25.5469H62.7734ZM68.2109 25.5469L64.6953 30.8125H62.2812L62.0078 28.7344H63.625L65.4141 25.5469H68.2109ZM65.5156 34L63.5859 30.4297L65.4922 29.3438L68.2812 34H65.5156ZM71.6172 30.8594L74.4531 25.5469H76.7031V34H74.4531V28.6797L71.6172 34H69.3672V25.5469H71.6172V30.8594ZM79.9609 25.5469H82.2109L82.1406 28.375C82.1198 29.2812 82.0156 30.0599 81.8281 30.7109C81.6406 31.362 81.3906 31.9089 81.0781 32.3516C80.7656 32.7943 80.4089 33.1484 80.0078 33.4141C79.612 33.6745 79.1953 33.8698 78.7578 34H78.3359L78.3125 32.2656L78.5469 32.2422C78.8125 31.9661 79.0312 31.6979 79.2031 31.4375C79.375 31.1719 79.5078 30.8932 79.6016 30.6016C79.6953 30.3099 79.763 29.9844 79.8047 29.625C79.8516 29.2656 79.8802 28.849 79.8906 28.375L79.9609 25.5469ZM80.5703 25.5469H86.1719V34H83.9297V27.3516H80.5703V25.5469ZM77.8203 32.2422H87.3828V36.5391H85.1328V34H80.125V36.5391H77.8203V32.2422ZM93.0938 32.0938V28.3281C93.0938 28.0573 93.0495 27.8255 92.9609 27.6328C92.8724 27.4349 92.7344 27.2812 92.5469 27.1719C92.3646 27.0625 92.1276 27.0078 91.8359 27.0078C91.5859 27.0078 91.3698 27.0521 91.1875 27.1406C91.0052 27.224 90.8646 27.3464 90.7656 27.5078C90.6667 27.6641 90.6172 27.849 90.6172 28.0625H88.3672C88.3672 27.7031 88.4505 27.362 88.6172 27.0391C88.7839 26.7161 89.026 26.4323 89.3438 26.1875C89.6615 25.9375 90.0391 25.7422 90.4766 25.6016C90.9193 25.4609 91.4141 25.3906 91.9609 25.3906C92.6172 25.3906 93.2005 25.5 93.7109 25.7188C94.2214 25.9375 94.6224 26.2656 94.9141 26.7031C95.2109 27.1406 95.3594 27.6875 95.3594 28.3438V31.9609C95.3594 32.4245 95.388 32.8047 95.4453 33.1016C95.5026 33.3932 95.5859 33.6484 95.6953 33.8672V34H93.4219C93.3125 33.7708 93.2292 33.4844 93.1719 33.1406C93.1198 32.7917 93.0938 32.4427 93.0938 32.0938ZM93.3906 28.8516L93.4062 30.125H92.1484C91.8516 30.125 91.5938 30.1589 91.375 30.2266C91.1562 30.2943 90.9766 30.3906 90.8359 30.5156C90.6953 30.6354 90.5911 30.776 90.5234 30.9375C90.4609 31.099 90.4297 31.276 90.4297 31.4688C90.4297 31.6615 90.474 31.8359 90.5625 31.9922C90.651 32.1432 90.7786 32.263 90.9453 32.3516C91.112 32.4349 91.3073 32.4766 91.5312 32.4766C91.8698 32.4766 92.1641 32.4089 92.4141 32.2734C92.6641 32.138 92.8568 31.9714 92.9922 31.7734C93.1328 31.5755 93.2057 31.388 93.2109 31.2109L93.8047 32.1641C93.7214 32.3776 93.6068 32.599 93.4609 32.8281C93.3203 33.0573 93.1406 33.2734 92.9219 33.4766C92.7031 33.6745 92.4401 33.8385 92.1328 33.9688C91.8255 34.0938 91.4609 34.1562 91.0391 34.1562C90.5026 34.1562 90.0156 34.0495 89.5781 33.8359C89.1458 33.6172 88.8021 33.3177 88.5469 32.9375C88.2969 32.5521 88.1719 32.1146 88.1719 31.625C88.1719 31.1823 88.2552 30.7891 88.4219 30.4453C88.5885 30.1016 88.8333 29.8125 89.1562 29.5781C89.4844 29.3385 89.8932 29.1589 90.3828 29.0391C90.8724 28.9141 91.4401 28.8516 92.0859 28.8516H93.3906ZM102.883 28.9609V30.7109H98.5859V28.9609H102.883ZM99.3359 25.5469V34H97.0859V25.5469H99.3359ZM104.406 25.5469V34H102.148V25.5469H104.406ZM108.398 30.8594L111.234 25.5469H113.484V34H111.234V28.6797L108.398 34H106.148V25.5469H108.398V30.8594ZM117.039 29.7812H119.32L116.969 34H114.695L117.039 29.7812ZM118.555 25.5469H122.266V34H120.016V27.2891H118.555C118.247 27.2891 117.992 27.3464 117.789 27.4609C117.586 27.5703 117.435 27.7135 117.336 27.8906C117.242 28.0625 117.195 28.2396 117.195 28.4219C117.195 28.599 117.242 28.7708 117.336 28.9375C117.43 29.1042 117.576 29.2422 117.773 29.3516C117.971 29.4609 118.219 29.5156 118.516 29.5156H120.852V31.0469H118.516C117.958 31.0469 117.458 30.9792 117.016 30.8438C116.578 30.7083 116.203 30.5208 115.891 30.2812C115.583 30.0365 115.346 29.7526 115.18 29.4297C115.018 29.1016 114.938 28.7422 114.938 28.3516C114.938 27.9453 115.021 27.5729 115.188 27.2344C115.354 26.8958 115.594 26.599 115.906 26.3438C116.219 26.0885 116.596 25.8932 117.039 25.7578C117.487 25.6172 117.992 25.5469 118.555 25.5469Z" fill="#262626"/>
</svg>
